<svg width="450" height="354" viewBox="0 0 450 354" fill="none" xmlns="http://www.w3.org/2000/svg">
<path d="M344.483 322.269C357.717 322.269 368.444 300.067 368.444 272.68C368.444 245.293 357.717 223.092 344.483 223.092C331.25 223.092 320.522 245.293 320.522 272.68C320.522 300.067 331.25 322.269 344.483 322.269Z" fill="#3F3D56"/>
<path d="M342.271 353.849C351.867 295.448 342.367 237.259 342.27 236.678L340.403 236.999C340.5 237.577 349.946 295.46 340.403 353.533L342.271 353.849Z" fill="#CACACA"/>
<path d="M323.388 262.017L322.495 263.711L344.162 275.466L345.055 273.772L323.388 262.017Z" fill="#CACACA"/>
<path d="M367.03 267.906L345.365 279.667L346.259 281.361L367.923 269.599L367.03 267.906Z" fill="#CACACA"/>
<path d="M402.054 291.189C427.937 291.189 448.919 247.765 448.919 194.199C448.919 140.634 427.937 97.2101 402.054 97.2101C376.172 97.2101 355.19 140.634 355.19 194.199C355.19 247.765 376.172 291.189 402.054 291.189Z" fill="#E6E6E6"/>
<path d="M396.834 352.805C415.579 238.731 397.023 125.072 396.834 123.938L394.967 124.258C395.156 125.39 413.657 238.743 394.967 352.489L396.834 352.805Z" fill="#CACACA"/>
<path d="M360.367 174.153L359.474 175.846L401.853 198.838L402.746 197.144L360.367 174.153Z" fill="#CACACA"/>
<path d="M446.579 185.67L404.206 208.674L405.099 210.367L447.473 187.364L446.579 185.67Z" fill="#CACACA"/>
<path d="M293.211 353.109H43.9342C43.0174 353.108 42.1384 352.738 41.4901 352.081C40.8419 351.423 40.4772 350.532 40.4761 349.602V189.838C40.4771 188.908 40.8418 188.016 41.4901 187.359C42.1384 186.701 43.0174 186.331 43.9342 186.33H293.211C294.128 186.331 295.007 186.701 295.655 187.359C296.303 188.016 296.668 188.908 296.669 189.838V349.602C296.668 350.532 296.303 351.423 295.655 352.081C295.007 352.738 294.128 353.108 293.211 353.109Z" fill="#E4E4E4"/>
<path d="M66.8585 205.691C66.4656 205.691 66.0889 205.849 65.811 206.131C65.5332 206.413 65.3769 206.795 65.3765 207.194V332.246C65.3769 332.645 65.5332 333.027 65.811 333.309C66.0889 333.591 66.4656 333.749 66.8585 333.75H270.287C270.68 333.749 271.056 333.591 271.334 333.309C271.612 333.027 271.768 332.645 271.769 332.246V207.194C271.768 206.795 271.612 206.413 271.334 206.131C271.056 205.849 270.68 205.691 270.287 205.691H66.8585Z" fill="white"/>
<path d="M272.263 237.899V229.975H243.495V205.189H235.682V229.975H184.465V205.189H176.652V229.975H97.6568V205.189H89.8441V229.975H62.5279V237.899H89.8441V268.716H62.5279V276.64H89.8441V309.659H62.5279V317.583H131.946V334.25H139.759V317.583H176.652V334.25H184.465V317.583H272.263V309.659H184.465V276.64H272.263V268.716H243.495V237.899H272.263ZM176.652 237.899V247.585H97.6568V237.899H176.652ZM97.6568 255.509H176.652V268.716H97.6568V255.509ZM97.6568 309.659V276.64H131.946V309.659H97.6568ZM176.652 309.659H139.759V276.64H176.652V309.659ZM235.682 268.716H184.465V237.899H235.682V268.716Z" fill="#E6E6E6"/>
<path d="M180.559 283.806C186.072 283.806 190.542 279.273 190.542 273.68C190.542 268.088 186.072 263.555 180.559 263.555C175.045 263.555 170.576 268.088 170.576 273.68C170.576 279.273 175.045 283.806 180.559 283.806Z" fill="#2F2E41"/>
<path d="M449.805 353.967H0V352.873H450L449.805 353.967Z" fill="#CACACA"/>
<path d="M181.755 213.53C215.766 213.53 243.337 185.565 243.337 151.069C243.337 116.572 215.766 88.6077 181.755 88.6077C147.745 88.6077 120.174 116.572 120.174 151.069C120.174 185.565 147.745 213.53 181.755 213.53Z" fill="#2F2E41"/>
<path d="M182.357 252.606L162.902 218.897L143.447 185.188L181.956 184.953L220.465 184.718L201.411 218.662L182.357 252.606Z" fill="#2F2E41"/>
<path d="M182.249 173.086C194.452 173.086 204.344 163.053 204.344 150.676C204.344 138.299 194.452 128.266 182.249 128.266C170.047 128.266 160.155 138.299 160.155 150.676C160.155 163.053 170.047 173.086 182.249 173.086Z" fill="white"/>
<path d="M180.331 1.03524C180.331 1.03524 167.154 -2.72965 163.256 15.5301C159.359 33.7898 161.834 31.4891 161.834 31.4891L191.251 28.0066C191.251 28.0066 200.096 6.58844 180.331 1.03524Z" fill="#2F2E41"/>
<path d="M161.167 81.1411C161.167 81.1411 141.287 82.0745 144.73 89.9894C144.974 90.5489 145.2 91.0731 145.41 91.562C147.871 97.2948 150.703 102.856 153.889 108.209L166.107 128.743L170.554 126.237L158.042 93.2485L169.288 92.3173L161.167 81.1411Z" fill="#FFB6B6"/>
<path d="M213.584 89.5238L220.01 103.724C220.01 103.724 224.83 108.613 230.108 128.167C235.387 147.721 236.535 147.023 236.535 147.023L231.317 148.786L209.911 109.311L199.354 95.8092L202.567 88.5927L213.584 89.5238Z" fill="#FFB6B6"/>
<path d="M205.78 73.2285L215.015 90.6615C215.015 90.6615 235.951 132.389 233.787 132.25C231.355 132.094 224.523 134.97 222.425 137.762C221.412 139.11 206.616 106.195 201.42 98.8355L190.173 89.9894C190.173 89.9894 158.242 95.4405 158.203 93.6679C158.184 92.7996 168.775 113.632 166.601 112.709C164.125 111.657 158.301 116.774 155.733 115.715C154.674 115.278 147.188 96.869 144.158 89.3255C143.778 88.3839 143.758 87.3322 144.102 86.3765C144.447 85.4208 145.131 84.6301 146.02 84.1592C148.297 82.9579 179.94 75.6294 179.94 75.6294L179.386 72.7629L181.682 68.1071L205.78 73.2285Z" fill="#CACACA"/>
<path d="M186.844 21.8385C187.636 16.8891 184.322 12.2258 179.443 11.4226C174.563 10.6195 169.966 13.9806 169.174 18.93C168.382 23.8794 171.696 28.5427 176.575 29.3458C181.455 30.149 186.053 26.7878 186.844 21.8385Z" fill="#FFB6B6"/>
<path d="M206.616 74.6272C207.111 76.1311 203.91 76.995 199.448 76.15C195.588 75.419 191.362 74.5507 188.03 73.8477C184.461 73.0935 181.911 72.5301 181.911 72.5301C181.911 72.5301 180.993 78.3499 178.009 77.6515C175.439 77.0509 167.757 49.8354 165.68 42.3139C165.528 41.7647 165.557 41.1803 165.763 40.6495C165.969 40.1187 166.341 39.6708 166.821 39.3738L177.371 32.8393C177.371 32.8393 184.642 30.3066 187.293 30.2344C189.944 30.1622 194.534 29.4639 194.534 29.4639C194.534 29.4639 199.813 29.9295 200.731 33.8869C201.649 37.8443 205.48 61.3083 205.551 66.9431C205.628 73.124 205.134 70.1176 206.616 74.6272Z" fill="#8CAAC1"/>
<path d="M181.356 8.72275C181.356 8.72275 177.644 18.6997 168.55 22.8411L167.065 13.9936L181.356 8.72275Z" fill="#2F2E41"/>
<path d="M186.731 19.3375C187.428 19.3375 187.993 18.2432 187.993 16.8932C187.993 15.5433 187.428 14.4489 186.731 14.4489C186.034 14.4489 185.469 15.5433 185.469 16.8932C185.469 18.2432 186.034 19.3375 186.731 19.3375Z" fill="#FFB6B6"/>
<path d="M174.253 131.071L156.51 139.344L156.407 139.117C155.565 137.259 155.485 135.138 156.184 133.221C156.884 131.303 158.306 129.746 160.137 128.892L160.138 128.891L170.975 123.838L174.253 131.071Z" fill="#CACACA"/>
<path d="M228.672 147.6L239.556 142.652C241.395 141.816 243.488 141.755 245.371 142.482C247.255 143.21 248.777 144.668 249.601 146.533L249.703 146.762L231.882 154.864L228.672 147.6Z" fill="#CACACA"/>
<path opacity="0.2" d="M199.206 53.0811L197.128 76.2611L200.822 76.438L199.206 53.0811Z" fill="#3F3D56"/>
<path d="M184.722 96.3845C185.163 95.8861 185.49 95.2957 185.681 94.6551C185.872 94.0146 185.922 93.3393 185.828 92.6769C185.733 92.0145 185.497 91.3811 185.136 90.8214C184.774 90.2616 184.296 89.7891 183.735 89.437L175.752 48.5367L166.585 52.0939L177.314 91.179C176.794 92.1744 176.651 93.3288 176.914 94.4237C177.176 95.5185 177.826 96.4776 178.739 97.1193C179.652 97.7609 180.765 98.0405 181.868 97.9051C182.971 97.7697 183.986 97.2287 184.722 96.3845Z" fill="#FFB6B6"/>
<path d="M177.772 55.4299L167.706 57.2282C167.419 57.2793 167.126 57.2673 166.844 57.1928C166.563 57.1184 166.3 56.9833 166.075 56.7968C165.85 56.6103 165.667 56.3767 165.539 56.112C165.41 55.8473 165.34 55.5576 165.332 55.2628L165.054 44.9314C164.804 43.4436 165.146 41.9159 166.005 40.6835C166.864 39.451 168.17 38.6144 169.636 38.3569C171.102 38.0995 172.609 38.4423 173.826 39.3102C175.044 40.1781 175.872 41.5002 176.13 42.9867L179.341 52.7602C179.432 53.04 179.464 53.3367 179.432 53.6299C179.401 53.9232 179.308 54.2061 179.159 54.4595C179.01 54.7128 178.809 54.9307 178.57 55.0981C178.33 55.2656 178.058 55.3788 177.772 55.4299Z" fill="#93B4D4"/>
<path d="M192.44 95.665C193.014 95.336 193.511 94.8833 193.894 94.3386C194.278 93.794 194.539 93.1707 194.659 92.5126C194.779 91.8546 194.756 91.1778 194.59 90.53C194.425 89.8822 194.121 89.2791 193.701 88.7631L199.07 47.4263L189.263 47.8142L187.069 88.325C186.261 89.0984 185.761 90.1456 185.663 91.268C185.566 92.3904 185.878 93.51 186.54 94.4148C187.202 95.3195 188.168 95.9465 189.256 96.1769C190.343 96.4074 191.476 96.2252 192.44 95.665Z" fill="#FFB6B6"/>
<path d="M198.804 54.6124L188.701 53.0418C188.414 52.9971 188.139 52.8901 187.896 52.7281C187.653 52.5661 187.447 52.3528 187.293 52.1029C187.138 51.853 187.039 51.5722 187.001 51.2798C186.963 50.9873 186.988 50.69 187.074 50.4082L190.077 40.5319C190.311 39.0414 191.117 37.7057 192.321 36.8177C193.524 35.9297 195.025 35.5619 196.495 35.7949C197.965 36.0279 199.284 36.8428 200.163 38.0607C201.042 39.2787 201.408 40.8004 201.182 42.2921L201.134 52.5939C201.132 52.8888 201.068 53.18 200.946 53.4476C200.823 53.7151 200.646 53.9528 200.425 54.1443C200.203 54.3359 199.944 54.4768 199.664 54.5576C199.385 54.6384 199.091 54.657 198.804 54.6124Z" fill="#8CAAC1"/>
</svg>
